<?xml version="1.0" encoding="utf-8"?>
<!-- Generator: Adobe Illustrator 24.0.2, SVG Export Plug-In . SVG Version: 6.00 Build 0)  -->
<svg version="1.1" id="Livello_1" xmlns="http://www.w3.org/2000/svg" xmlns:xlink="http://www.w3.org/1999/xlink" x="0px" y="0px"
	 viewBox="0 0 135.96 135.96" style="enable-background:new 0 0 135.96 135.96;" xml:space="preserve">
<style type="text/css">
	.st0{fill:#2c9de5;}
</style>
<path class="st0" d="M135.96,68.23c0-10.16-6.19-18.88-15-22.59c0.7-2.28,1.08-4.71,1.08-7.22c0-13.53-10.97-24.51-24.51-24.51
	c-2.35,0-4.62,0.34-6.77,0.95C87.02,6.13,78.34,0,68.23,0C58.07,0,49.35,6.19,45.64,15c-2.28-0.7-4.71-1.08-7.22-1.08
	c-13.53,0-24.51,10.97-24.51,24.51c0,0.04,0,0.08,0,0.13c0,0.04,0,0.08,0,0.13c0,2.35,0.34,4.62,0.95,6.77
	C6.13,49.19,0,57.87,0,67.98c0,10.14,6.16,18.84,14.93,22.56c-0.66,2.22-1.02,4.56-1.02,6.99c0,0.04,0,0.08,0,0.13
	c0,0.04,0,0.08,0,0.13c0,13.53,10.97,24.51,24.51,24.51c2.39,0,4.69-0.35,6.87-0.98c3.79,8.62,12.41,14.65,22.43,14.65
	c10.16,0,18.88-6.19,22.59-15c2.28,0.7,4.71,1.08,7.22,1.08c13.53,0,24.51-10.97,24.51-24.51c0-2.35-0.34-4.62-0.95-6.77
	C129.83,87.02,135.96,78.34,135.96,68.23z M100.12,55.11L62.58,92.66c-0.91,0.91-2.38,0.91-3.29,0l-8.52-8.52
	c-0.12-0.12-0.22-0.25-0.31-0.38L37.26,70.47c-0.89-0.9-0.89-2.34,0.01-3.24l8.52-8.52c0.93-0.93,2.43-0.93,3.36,0l11.87,11.87
	L88.31,43.3c0.91-0.91,2.38-0.91,3.29,0l8.52,8.52C101.03,52.73,101.03,54.2,100.12,55.11z"/>
</svg>
